<svg xmlns="http://www.w3.org/2000/svg" width="100.99" height="31.75" viewBox="0 0 100.99 31.75"><style>.style0{fill-rule:	evenodd;clip-rule:	evenodd;fill:	#FFFFFF;}</style><g><title>iBok</title><g/><g/><g><polygon points="17.3,31.09 7.77,31.48 0.85,23.66 0.23,22.05 5.59,13.33 13.63,17.56 7.21,29.23 7.96,30.65 17.11,30.2 17.49,30.45" class="style0"/><polygon points="5.87,11.41 10.2,2.66 20.21,0.27 21.88,0.49 26.65,9.56 19.14,14.72 12.38,3.25 10.82,3.24 6.73,11.68 6.33,11.89" class="style0"/><polygon points="28.46,11.47 33.55,19.78 30.43,29.85 29.39,31.21 19.37,30.79 18.92,21.51 31.95,21.4 32.76,20.03 27.8,12.09 27.83,11.63" class="style0"/><polygon points="11.44,24.81 8.64,29.43 16.87,28.91" class="style0"/><polygon points="14.1,9.3 11.66,4.47 7.92,12.02" class="style0"/><polygon points="25.99,20.02 31.27,20.16 26.67,13.13" class="style0"/><g><path d="m43.8531 11.280397l-3.029999 0l0 13.679987c0 0.78 0.12 1.47 0.36 2.04999c0.21999 0.6 0.54 1.08 0.94 1.480011c0.39999 0.39 0.86 0.68 1.41 0.869999c0.540012 0.19 1.12 0.28 1.74 0.280001c0.440002 0 0.87 -0.02 1.26 -0.059999c0.400021 -0.05 0.71 -0.11 0.96 -0.169981l0 -2.42001c-0.450012 0.14 -0.96 0.21 -1.52 0.20999c-1.419979 0 -2.12 -0.86 -2.12 -2.559999l0 -13.359987l0.000011 0zm-0.540009 -5.430021c0.36002 -0.35 0.54 -0.78 0.54 -1.28998c0 -0.52 -0.18 -0.96 -0.54 -1.32001c-0.359989 -0.34 -0.78 -0.52 -1.29 -0.51999c-0.5 0 -0.93 0.18 -1.28 0.51999c-0.35001 0.36 -0.52 0.8 -0.52 1.32001c0 0.54 0.17 0.97 0.52 1.31001c0.349979 0.35 0.78 0.52 1.28 0.51999c0.509979 0 0.93 -0.17 1.29 -0.54002z" class="style0"/></g><g><polygon points="91.62,20.75 100.2,11.9 96.39,11.9 88.76,20.3 88.69,20.3 88.69,3.33 85.66,3.33 85.66,30.26 88.69,30.26 88.69,21.43 88.76,21.43 96.75,30.26 100.81,30.26" class="style0"/></g><g><path d="m78.813103 15.650388c0.930016 1.29 1.4 3.1 1.4 5.459987c0 2.34 -0.47 4.14 -1.4 5.41c-0.919983 1.27 -2.24 1.9 -3.96 1.89999c-1.690002 0 -3.04 -0.64 -4.04 -1.929989c-1.009979 -1.29 -1.51 -3.06 -1.51 -5.299992c0 -2.32 0.49 -4.15 1.49 -5.469996c0.98999 -1.32 2.34 -1.99 4.06 -1.99002c1.720001 0 3.04 0.64 3.96 1.92001l0 0.00001zm1.650017 12.519986c1.440002 -1.8 2.17 -4.19 2.17 -7.169979c0 -3.04 -0.67 -5.41 -2.01 -7.129997c-1.340042 -1.72 -3.2 -2.59 -5.58 -2.59c-2.5 0 -4.49 0.89 -5.96 2.64999c-1.469994 1.77 -2.2 4.23 -2.2 7.369997c0 2.88 0.7 5.21 2.11 6.95001c1.410004 1.75 3.3 2.62 5.67 2.619999c2.420006 0 4.36 -0.9 5.8 -2.700008l0 -0.000011z" class="style0"/></g><g><path d="m55.59309 18.630375c3.880001 0 5.83 1.6 5.83 4.820009c0 1.55 -0.46 2.76 -1.37 3.640011c-0.920013 0.89 -2.2 1.33 -3.87 1.32999l-3.840031 0l0 -9.79001l3.25 0l0.000011 0zm-0.009979 -11.019989c3.09 0 4.63 1.29 4.63 3.870001c0 1.5 -0.44 2.65 -1.33 3.48001c-0.88998 0.82 -2.1 1.22 -3.65 1.219997l-2.890011 0l0 -8.570009l3.240021 0zm0.88998 23.260007c2.300018 0 4.21 -0.68 5.72 -2.059999c1.510014 -1.37 2.26 -3.16 2.26 -5.379999c0 -1.78 -0.49 -3.22 -1.47 -4.330021c-0.98999 -1.11 -2.29 -1.77 -3.93 -1.979979l0 -0.080021c1.299988 -0.45 2.33 -1.2 3.08 -2.269987c0.730011 -1.07 1.11 -2.32 1.11 -3.76999c0 -1.73 -0.62 -3.14 -1.87 -4.220001c-1.25 -1.07 -2.94 -1.61 -5.06 -1.61002l-7 0l0 25.700008l7.159988 0l0.000019 0.00001l-0.000008 0z" class="style0"/></g></g></g></svg>
